<svg width="143" height="36" viewBox="0 0 143 36" fill="none" xmlns="http://www.w3.org/2000/svg">
<path d="M47.3193 10.4799C46.3089 10.4799 45.9721 10.8179 45.9721 11.832V14.8743H52.0344V17.0714H45.9721V23.832H43.1094V11.325C43.1094 9.2968 44.4565 8.28271 46.4773 8.28271C48.6664 8.28271 51.024 8.28272 53.0447 8.45173L52.8763 10.6489H47.3193" fill="#041724"/>
<path d="M55.9075 19.2673C56.0759 21.2954 56.9179 21.6335 58.7703 21.6335C59.7806 21.6335 61.4646 21.4645 62.6434 21.2954L62.8118 22.9856C61.633 23.4926 59.6122 23.6616 58.2651 23.6616C54.2236 23.6616 52.708 21.9715 52.708 17.9152C52.708 13.5208 54.2236 12.1687 57.9283 12.1687C61.4646 12.1687 62.9802 13.5208 62.9802 16.056C62.9802 18.0842 62.1382 19.2673 60.1174 19.2673H55.9075ZM59.6122 17.4081C60.4542 17.4081 60.6226 16.7321 60.6226 16.056C60.6226 14.8729 60.1174 14.3659 58.4335 14.3659C56.5811 14.3659 55.9075 14.8729 55.9075 17.2391H59.6122V17.4081Z" fill="#041724"/>
<path d="M71.5678 14.8735H70.7258C69.7154 14.8735 68.705 15.2115 67.1895 15.8876V23.6622H64.4951V12.6763H66.6843L66.8527 14.3665C68.3682 13.1834 69.8838 12.5073 71.3994 12.5073H71.9045L71.5678 14.8735Z" fill="#041724"/>
<path d="M79.8197 14.8735H78.9777C77.9673 14.8735 76.957 15.2115 75.4414 15.8876V23.6622H72.7471V12.6763H74.9362L75.1046 14.3665C76.6202 13.1834 78.1357 12.5073 79.6513 12.5073H80.1565L79.8197 14.8735Z" fill="#041724"/>
<path d="M91.1025 18.0851C91.1025 22.3104 89.587 23.8316 85.7139 23.8316C81.8408 23.8316 80.3252 22.3104 80.3252 18.0851C80.3252 13.8597 81.8408 12.3386 85.7139 12.3386C89.7554 12.3386 91.1025 13.8597 91.1025 18.0851ZM83.1879 18.0851C83.1879 20.9583 83.6931 21.6344 85.7139 21.6344C87.7346 21.6344 88.2398 20.7893 88.2398 18.0851C88.2398 15.2119 87.5662 14.5358 85.7139 14.5358C83.6931 14.5358 83.1879 15.3809 83.1879 18.0851Z" fill="#041724"/>
<path d="M101.879 14.1978C102.047 14.7048 102.216 15.2119 102.216 15.8879C102.216 18.4231 101.037 19.4372 97.332 19.4372C96.49 19.4372 95.9849 19.4372 95.3113 19.2682C94.9745 19.7752 95.1429 20.6203 95.9849 20.7893L100.026 21.2964C102.216 21.6344 103.058 22.6485 103.058 24.5076C103.058 27.2118 101.71 28.0569 97.5004 28.0569C93.2905 28.0569 91.9434 27.2118 91.9434 24.6766C91.9434 23.4935 92.4485 22.8175 93.6273 22.3104C92.6169 21.4654 92.9537 19.6062 93.9641 18.9302C92.6169 18.2541 92.2801 17.409 92.2801 15.8879C92.2801 13.3527 93.4589 12.3386 97.1636 12.3386C98.3424 12.3386 99.1844 12.5076 99.858 12.6767H103.226V14.0288L101.879 14.1978ZM95.3113 22.8175C94.8061 23.3245 94.4693 23.6625 94.4693 24.3386C94.4693 25.6907 94.9745 25.8597 97.332 25.8597C99.6896 25.8597 100.195 25.6907 100.195 24.3386C100.195 23.3245 99.858 23.3245 98.3424 23.1555L95.3113 22.8175ZM99.6896 15.8879C99.6896 14.7048 99.1844 14.1978 97.332 14.1978C95.4797 14.1978 94.8061 14.5358 94.8061 15.8879C94.8061 17.071 95.4797 17.5781 97.332 17.5781C99.016 17.5781 99.6896 17.071 99.6896 15.8879Z" fill="#041724"/>
<path d="M107.1 20.2821C107.1 21.1272 107.605 21.6342 108.447 21.6342H109.289L109.626 23.6624C109.121 23.8314 107.942 24.0004 107.268 24.0004C105.416 24.0004 104.237 22.9863 104.237 20.9582V7.94409H106.932V20.2821" fill="#041724"/>
<path d="M120.404 18.0851C120.404 22.3104 118.889 23.8316 115.016 23.8316C111.143 23.8316 109.627 22.3104 109.627 18.0851C109.627 13.8597 111.143 12.3386 115.016 12.3386C119.057 12.3386 120.404 13.8597 120.404 18.0851ZM112.49 18.0851C112.49 20.9583 112.995 21.6344 115.016 21.6344C117.036 21.6344 117.542 20.7893 117.542 18.0851C117.542 15.2119 116.868 14.5358 115.016 14.5358C112.995 14.5358 112.49 15.3809 112.49 18.0851Z" fill="#041724"/>
<path d="M124.108 11.6624C124.108 12.6765 124.108 13.3525 123.771 14.1976C124.95 13.0145 126.297 12.3385 127.813 12.3385C130.507 12.3385 131.854 14.0286 131.854 18.0849C131.854 21.6342 130.844 24.0004 126.634 24.0004C125.118 24.0004 122.761 23.6624 121.245 23.1553V7.94409H123.939V11.6624M124.108 21.4652C124.95 21.6342 125.96 21.8032 126.634 21.8032C128.318 21.8032 128.991 20.9582 128.991 18.0849C128.991 15.5497 128.655 14.7046 126.802 14.7046C125.792 14.7046 125.118 15.2117 124.108 15.8877V21.4652Z" fill="#041724"/>
<path d="M135.727 19.2673C135.895 21.2954 136.737 21.6335 138.59 21.6335C139.6 21.6335 141.284 21.4645 142.463 21.2954L142.631 22.9856C141.452 23.4926 139.432 23.6616 138.084 23.6616C134.043 23.6616 132.527 21.9715 132.527 17.9152C132.527 13.5208 134.043 12.1687 137.748 12.1687C141.284 12.1687 142.8 13.5208 142.8 16.056C142.8 18.0842 141.958 19.2673 139.937 19.2673H135.727ZM139.432 17.4081C140.274 17.4081 140.442 16.7321 140.442 16.056C140.442 14.8729 139.937 14.3659 138.253 14.3659C136.4 14.3659 135.727 14.8729 135.727 17.2391H139.432V17.4081Z" fill="#041724"/>
<path d="M34.016 12.507L27.4486 3.38028L17.008 0L6.39905 3.54929L0 12.507V23.4929L6.39905 32.4506L17.008 35.9999L27.4486 32.4506L34.016 23.4929V12.507Z" fill="#006CA3"/>
<path d="M11.7871 11.3239L17.0074 17.9155L24.08 13.3521L17.0074 0L11.7871 11.3239Z" fill="#FFCE2A"/>
<path d="M24.0811 13.3524L24.923 20.1129L34.0164 23.4932V12.5073L24.0811 13.3524Z" fill="#0099D8"/>
<path d="M17.0078 17.9157V26.3664L22.2281 23.4931L24.9224 20.1128L24.0804 13.3523L17.0078 17.9157Z" fill="#F26924"/>
<path d="M24.9229 20.1128L27.4488 32.4508L34.0162 23.4931L24.9229 20.1128Z" fill="#006CA3"/>
<path d="M27.4478 32.4508L22.2275 23.4931L24.9219 20.1128L27.4478 32.4508Z" fill="#005C97"/>
<path d="M17.0078 35.9995V26.3657L22.2281 23.4924L27.4484 32.4502L17.0078 35.9995Z" fill="#0099D8"/>
<path d="M6.39941 32.4501L8.58856 21.2952L17.0084 35.9994L6.39941 32.4501Z" fill="#006CA3"/>
<path d="M8.58887 21.2952L17.0087 26.3656V35.9994L8.58887 21.2952Z" fill="#62BB46"/>
<path d="M8.58887 21.2958L17.0087 17.9155V26.3662L8.58887 21.2958Z" fill="#0099D8"/>
<path d="M8.58942 21.2955L3.36914 18.7603L11.7889 11.3237L17.0092 17.9153L8.58942 21.2955Z" fill="#F26924"/>
<path d="M3.36792 18.7608L0 12.5073L6.39905 3.54956L11.7877 11.3242L3.36792 18.7608Z" fill="#96CA4F"/>
<path d="M0 12.5073L3.36792 18.7608L0 23.4932V12.5073Z" fill="#0099D8"/>
<path d="M3.36792 18.7605L8.5882 21.2957L6.39905 32.4506L0 23.4929L3.36792 18.7605Z" fill="#FFCE2A"/>
<path d="M6.39941 3.54929L17.0084 0L11.7881 11.3239L6.39941 3.54929Z" fill="#00B3DC"/>
<path d="M17.0078 0L24.0805 13.3521L34.0158 12.507L27.4484 3.38028L17.0078 0Z" fill="#006CA3"/>
</svg>
