<svg width="288" height="72" viewBox="0 0 288 72" fill="none" xmlns="http://www.w3.org/2000/svg">
<path d="M95.4349 20.9611C93.3972 20.9611 92.7179 21.6372 92.7179 23.6654V29.7499H104.944V34.1442H92.7179V47.6654H86.9443V22.6513C86.9443 18.5949 89.6613 16.5668 93.7368 16.5668C98.1519 16.5668 102.907 16.5668 106.982 16.9048L106.643 21.2992H95.4349" fill="white"/>
<path d="M112.755 38.5349C113.094 42.5912 114.792 43.2673 118.528 43.2673C120.566 43.2673 123.962 42.9293 126.34 42.5912L126.679 45.9715C124.302 46.9856 120.226 47.3236 117.509 47.3236C109.358 47.3236 106.302 43.9433 106.302 35.8307C106.302 27.0419 109.358 24.3377 116.83 24.3377C123.962 24.3377 127.019 27.0419 127.019 32.1124C127.019 36.1687 125.321 38.5349 121.245 38.5349H112.755ZM120.226 34.8166C121.924 34.8166 122.264 33.4645 122.264 32.1124C122.264 29.7462 121.245 28.7321 117.849 28.7321C114.113 28.7321 112.755 29.7462 112.755 34.4786H120.226V34.8166Z" fill="white"/>
<path d="M144.339 29.7479H142.641C140.603 29.7479 138.565 30.424 135.509 31.7761V47.3254H130.075V25.3535H134.49L134.829 28.7338C137.886 26.3676 140.943 25.0155 143.999 25.0155H145.018L144.339 29.7479Z" fill="white"/>
<path d="M160.981 29.7479H159.283C157.246 29.7479 155.208 30.424 152.151 31.7761V47.3254H146.717V25.3535H151.132L151.472 28.7338C154.529 26.3676 157.585 25.0155 160.642 25.0155H161.661L160.981 29.7479Z" fill="white"/>
<path d="M183.738 36.171C183.738 44.6217 180.681 47.664 172.87 47.664C165.059 47.664 162.002 44.6217 162.002 36.171C162.002 27.7203 165.059 24.6781 172.87 24.6781C181.021 24.6781 183.738 27.7203 183.738 36.171ZM167.776 36.171C167.776 41.9175 168.794 43.2696 172.87 43.2696C176.945 43.2696 177.964 41.5795 177.964 36.171C177.964 30.4245 176.606 29.0724 172.87 29.0724C168.794 29.0724 167.776 30.7626 167.776 36.171Z" fill="white"/>
<path d="M205.471 28.3964C205.811 29.4105 206.151 30.4246 206.151 31.7767C206.151 36.8471 203.773 38.8753 196.302 38.8753C194.603 38.8753 193.585 38.8753 192.226 38.5372C191.547 39.5513 191.886 41.2415 193.585 41.5795L201.736 42.5936C206.151 43.2696 207.849 45.2978 207.849 49.0161C207.849 54.4246 205.132 56.1147 196.641 56.1147C188.151 56.1147 185.434 54.4245 185.434 49.3541C185.434 46.9879 186.452 45.6358 188.83 44.6217C186.792 42.9316 187.471 39.2133 189.509 37.8612C186.792 36.5091 186.113 34.8189 186.113 31.7767C186.113 26.7062 188.49 24.6781 195.962 24.6781C198.339 24.6781 200.037 25.0161 201.396 25.3541H208.188V28.0584L205.471 28.3964ZM192.226 45.6358C191.207 46.6499 190.528 47.326 190.528 48.6781C190.528 51.3823 191.547 51.7203 196.302 51.7203C201.056 51.7203 202.075 51.3823 202.075 48.6781C202.075 46.6499 201.396 46.6499 198.339 46.3119L192.226 45.6358ZM201.056 31.7767C201.056 29.4105 200.037 28.3964 196.302 28.3964C192.566 28.3964 191.207 29.0724 191.207 31.7767C191.207 34.1429 192.566 35.1569 196.302 35.1569C199.698 35.1569 201.056 34.1429 201.056 31.7767Z" fill="white"/>
<path d="M216.001 40.565C216.001 42.2552 217.02 43.2693 218.718 43.2693H220.416L221.095 47.3256C220.076 47.6636 217.699 48.0017 216.34 48.0017C212.604 48.0017 210.227 45.9735 210.227 41.9172V15.889H215.661V40.565" fill="white"/>
<path d="M242.832 36.171C242.832 44.6217 239.775 47.664 231.964 47.664C224.152 47.664 221.096 44.6217 221.096 36.171C221.096 27.7203 224.152 24.6781 231.964 24.6781C240.115 24.6781 242.832 27.7203 242.832 36.171ZM226.869 36.171C226.869 41.9175 227.888 43.2696 231.964 43.2696C236.039 43.2696 237.058 41.5795 237.058 36.171C237.058 30.4245 235.7 29.0724 231.964 29.0724C227.888 29.0724 226.869 30.7626 226.869 36.171Z" fill="white"/>
<path d="M250.302 23.3256C250.302 25.3538 250.302 26.7059 249.623 28.396C252.001 26.0298 254.718 24.6777 257.774 24.6777C263.208 24.6777 265.925 28.058 265.925 36.1707C265.925 43.2693 263.887 48.0017 255.397 48.0017C252.34 48.0017 247.585 47.3256 244.529 46.3115V15.889H249.963V23.3256M250.302 42.9312C252.001 43.2693 254.038 43.6073 255.397 43.6073C258.793 43.6073 260.152 41.9171 260.152 36.1707C260.152 31.1002 259.472 29.4101 255.736 29.4101C253.699 29.4101 252.34 30.4242 250.302 31.7763V42.9312Z" fill="white"/>
<path d="M273.736 38.5349C274.076 42.5912 275.774 43.2673 279.51 43.2673C281.547 43.2673 284.944 42.9293 287.321 42.5912L287.661 45.9715C285.283 46.9856 281.208 47.3236 278.491 47.3236C270.34 47.3236 267.283 43.9433 267.283 35.8307C267.283 27.0419 270.34 24.3377 277.812 24.3377C284.944 24.3377 288 27.0419 288 32.1124C288 36.1687 286.302 38.5349 282.227 38.5349H273.736ZM281.208 34.8166C282.906 34.8166 283.245 33.4645 283.245 32.1124C283.245 29.7462 282.227 28.7321 278.83 28.7321C275.095 28.7321 273.736 29.7462 273.736 34.4786H281.208V34.8166Z" fill="white"/>
<path d="M68.604 25.0141L55.3586 6.76056L34.302 0L12.9057 7.09859L0 25.0141V46.9859L12.9057 64.9014L34.302 72L55.3586 64.9014L68.604 46.9859V25.0141Z" fill="#006CA3"/>
<path d="M23.7733 22.6479L34.3017 35.831L48.5659 26.7042L34.3017 0L23.7733 22.6479Z" fill="#FFCE2A"/>
<path d="M48.5669 26.7056L50.265 40.2268L68.6047 46.9873V25.0155L48.5669 26.7056Z" fill="#0099D8"/>
<path d="M34.3008 35.8314V52.7329L44.8291 46.9864L50.2631 40.2258L48.565 26.7047L34.3008 35.8314Z" fill="#F26924"/>
<path d="M50.2637 40.2267L55.358 64.9028L68.6034 46.9873L50.2637 40.2267Z" fill="#006CA3"/>
<path d="M55.3565 64.9028L44.8281 46.9873L50.2621 40.2267L55.3565 64.9028Z" fill="#005C97"/>
<path d="M34.3008 71.9984V52.7308L44.8291 46.9843L55.3574 64.8998L34.3008 71.9984Z" fill="#0099D8"/>
<path d="M12.9072 64.8997L17.3223 42.5898L34.3035 71.9983L12.9072 64.8997Z" fill="#006CA3"/>
<path d="M17.3223 42.5898L34.3034 52.7307V71.9983L17.3223 42.5898Z" fill="#62BB46"/>
<path d="M17.3223 42.5927L34.3034 35.8322V52.7336L17.3223 42.5927Z" fill="#0099D8"/>
<path d="M17.3228 42.5922L6.79443 37.5218L23.7756 22.6486L34.3039 35.8317L17.3228 42.5922Z" fill="#F26924"/>
<path d="M6.79248 37.5225L0 25.0154L12.9057 7.09991L23.7737 22.6492L6.79248 37.5225Z" fill="#96CA4F"/>
<path d="M0 25.0155L6.79248 37.5225L0 46.9873V25.0155Z" fill="#0099D8"/>
<path d="M6.79247 37.5223L17.3208 42.5927L12.9057 64.9026L0 46.9871L6.79247 37.5223Z" fill="#FFCE2A"/>
<path d="M12.9073 7.09859L34.3035 0L23.7752 22.6479L12.9073 7.09859Z" fill="#00B3DC"/>
<path d="M34.3006 0L48.5647 26.7042L68.6025 25.0141L55.3572 6.76057L34.3006 0Z" fill="#006CA3"/>
</svg>
