<svg width="22" height="23" viewBox="0 0 22 23" fill="none" xmlns="http://www.w3.org/2000/svg">
<g clip-path="url(#clip0_1237_28536)">
<path fill-rule="evenodd" clip-rule="evenodd" d="M14.8516 18.0951C14.8516 18.9428 14.003 19.3384 13.6085 19.3384C4.87753 19.3384 4.87755 19.3384 4.87755 19.3384C4.02888 19.3384 3.60545 18.9428 3.60545 18.0951C3.60545 9.3641 3.60545 9.3641 3.60545 9.3641C3.60545 8.96854 4.02888 8.12078 4.87755 8.12078C5.69726 8.12078 5.69727 8.12078 5.69727 8.12078C5.69727 7.30143 5.69727 7.30143 5.69727 7.30143C4.87755 7.30143 4.87755 7.30143 4.87755 7.30143C3.60545 7.30143 2.3623 8.12078 2.3623 9.3641C2.3623 18.0951 2.3623 18.0951 2.3623 18.0951C2.3623 19.3384 3.60545 20.6099 4.87755 20.6099C13.6085 20.6099 13.6085 20.6099 13.6085 20.6099C14.8516 20.6099 15.6714 19.3384 15.6714 18.0951C15.6714 17.2757 15.6714 17.2757 15.6714 17.2757C14.8516 17.2757 14.8516 17.2757 14.8516 17.2757V18.0951ZM18.1848 2.72388C9.03039 2.72388 9.03042 2.72388 9.03042 2.72388C7.78727 2.72388 6.94041 3.54341 6.94041 4.78655C6.94041 13.9415 6.94041 13.9415 6.94041 13.9415C6.94041 15.1848 7.78727 16.0324 9.03042 16.0324C18.1848 16.0324 18.1848 16.0324 18.1848 16.0324C19.4297 16.0324 20.2477 15.1848 20.2477 13.9415C20.2477 4.78655 20.2477 4.78655 20.2477 4.78655C20.2477 3.54341 19.4297 2.72388 18.1848 2.72388ZM19.0045 13.9415C19.0045 14.3654 18.5811 14.761 18.1848 14.761C9.03039 14.761 9.03042 14.761 9.03042 14.761C8.60699 14.761 8.21068 14.3654 8.21068 13.9415C8.21068 4.78655 8.21068 4.78655 8.21068 4.78655C8.21068 4.36276 8.60699 3.9672 9.03042 3.9672C18.1848 3.9672 18.1848 3.9672 18.1848 3.9672C18.5811 3.9672 19.0045 4.36276 19.0045 4.78655V13.9415Z" fill="#272829"/>
</g>
<defs>
<clipPath id="clip0_1237_28536">
<rect width="19" height="19" fill="white" transform="translate(2 2)"/>
</clipPath>
</defs>
</svg>
