<svg width="16" height="18" viewBox="0 0 16 18" fill="none" xmlns="http://www.w3.org/2000/svg">
<path d="M4.9987 10.667C4.76259 10.667 4.56453 10.587 4.40453 10.427C4.24453 10.267 4.16481 10.0692 4.16537 9.83366C4.16537 9.59755 4.24537 9.39949 4.40537 9.23949C4.56537 9.07949 4.76314 8.99977 4.9987 9.00033C5.23481 9.00033 5.43287 9.08033 5.59287 9.24032C5.75287 9.40033 5.83259 9.5981 5.83203 9.83366C5.83203 10.0698 5.75203 10.2678 5.59203 10.4278C5.43203 10.5878 5.23425 10.6675 4.9987 10.667ZM8.33203 10.667C8.09592 10.667 7.89787 10.587 7.73787 10.427C7.57787 10.267 7.49814 10.0692 7.4987 9.83366C7.4987 9.59755 7.5787 9.39949 7.7387 9.23949C7.8987 9.07949 8.09648 8.99977 8.33203 9.00033C8.56814 9.00033 8.7662 9.08033 8.9262 9.24032C9.0862 9.40033 9.16592 9.5981 9.16537 9.83366C9.16537 10.0698 9.08537 10.2678 8.92537 10.4278C8.76537 10.5878 8.56759 10.6675 8.33203 10.667ZM11.6654 10.667C11.4293 10.667 11.2312 10.587 11.0712 10.427C10.9112 10.267 10.8315 10.0692 10.832 9.83366C10.832 9.59755 10.912 9.39949 11.072 9.23949C11.232 9.07949 11.4298 8.99977 11.6654 9.00033C11.9015 9.00033 12.0995 9.08033 12.2595 9.24032C12.4195 9.40033 12.4993 9.5981 12.4987 9.83366C12.4987 10.0698 12.4187 10.2678 12.2587 10.4278C12.0987 10.5878 11.9009 10.6675 11.6654 10.667ZM2.4987 17.3337C2.04037 17.3337 1.64787 17.1703 1.3212 16.8437C0.994533 16.517 0.831477 16.1248 0.832033 15.667V4.00033C0.832033 3.54199 0.995366 3.14949 1.32203 2.82283C1.6487 2.49616 2.04092 2.3331 2.4987 2.33366H3.33203V0.666992H4.9987V2.33366H11.6654V0.666992H13.332V2.33366H14.1654C14.6237 2.33366 15.0162 2.49699 15.3429 2.82366C15.6695 3.15033 15.8326 3.54255 15.832 4.00033V15.667C15.832 16.1253 15.6687 16.5178 15.342 16.8445C15.0154 17.1712 14.6231 17.3342 14.1654 17.3337H2.4987ZM2.4987 15.667H14.1654V7.33366H2.4987V15.667Z" fill="black"/>
</svg>
