<svg width="20" height="20" viewBox="0 0 20 20" fill="#606466" xmlns="http://www.w3.org/2000/svg">
<path fill-rule="evenodd" clip-rule="evenodd" d="M10.097 18.3163C5.2831 18.3163 1.43945 14.4759 1.43945 9.60382C1.43945 4.96105 5.2831 1.09204 10.097 1.09204C14.9372 1.09204 18.7524 4.96105 18.7524 9.60382C18.7524 14.4759 14.9372 18.3163 10.097 18.3163ZM3.06165 9.60382C3.06165 13.4442 6.27968 16.6827 10.097 16.6827C11.7192 16.6827 13.3129 16.0809 14.5378 15.0778C4.65751 5.36224 4.65751 5.36224 4.65751 5.36224C3.66092 6.56601 3.06165 7.99887 3.06165 9.60382ZM10.097 2.72561C8.50115 2.72561 6.87896 3.12679 5.68261 4.12986C15.5343 14.0747 15.5343 14.0747 15.5343 14.0747C16.5309 12.8423 17.1587 11.2374 17.1587 9.60382C17.1587 5.76342 13.9407 2.72561 10.097 2.72561Z" fill="#606466"/>
</svg>
