<svg width="18" height="18" viewBox="0 0 18 18" fill="none" xmlns="http://www.w3.org/2000/svg">
<path d="M8.16699 2.3332H2.33366C1.89163 2.3332 1.46771 2.50879 1.15515 2.82135C0.842587 3.13391 0.666992 3.55784 0.666992 3.99986V15.6665C0.666992 16.1086 0.842587 16.5325 1.15515 16.845C1.46771 17.1576 1.89163 17.3332 2.33366 17.3332H14.0003C14.4424 17.3332 14.8663 17.1576 15.1788 16.845C15.4914 16.5325 15.667 16.1086 15.667 15.6665V9.8332M14.417 1.0832C14.7485 0.751676 15.1982 0.56543 15.667 0.56543C16.1358 0.56543 16.5855 0.751676 16.917 1.0832C17.2485 1.41472 17.4348 1.86436 17.4348 2.3332C17.4348 2.80204 17.2485 3.25168 16.917 3.5832L9.00033 11.4999L5.66699 12.3332L6.50033 8.99986L14.417 1.0832Z" stroke="#606466" stroke-linecap="round" stroke-linejoin="round"/>
</svg>
