<svg width="16" height="16" viewBox="0 0 16 16" fill="none" xmlns="http://www.w3.org/2000/svg">
<g clip-path="url(#clip0_683_6449)">
<path d="M11.96 11.9613C10.8204 12.83 9.4327 13.3112 7.99996 13.3347C3.33329 13.3347 0.666626 8.00132 0.666626 8.00132C1.49589 6.45592 2.64605 5.10572 4.03996 4.04132M6.59996 2.82799C7.05885 2.72057 7.52867 2.66688 7.99996 2.66799C12.6666 2.66799 15.3333 8.00132 15.3333 8.00132C14.9286 8.75839 14.446 9.47114 13.8933 10.128M9.41329 9.41465C9.23019 9.61115 9.00939 9.76876 8.76406 9.87807C8.51873 9.98738 8.25389 10.0462 7.98535 10.0509C7.71681 10.0556 7.45007 10.0062 7.20103 9.90565C6.952 9.80506 6.72577 9.65534 6.53586 9.46542C6.34594 9.2755 6.19622 9.04928 6.09563 8.80025C5.99504 8.55121 5.94564 8.28447 5.95038 8.01593C5.95512 7.74738 6.0139 7.48255 6.12321 7.23722C6.23252 6.99189 6.39013 6.77108 6.58663 6.58799" stroke="black" strokeWidth="1.5" strokeLinecap="round" strokeLinejoin="round"/>
<path d="M0.666626 0.667969L15.3333 15.3346" stroke="black" strokeWidth="1.5" strokeLinecap="round" strokeLinejoin="round"/>
</g>
<defs>
<clipPath id="clip0_683_6449">
<rect width="16" height="16" fill="white"/>
</clipPath>
</defs>
</svg>
