<svg width="16" height="17" viewBox="0 0 16 17" fill="none" xmlns="http://www.w3.org/2000/svg">
<path d="M4.875 1.5H11.125" stroke="#041724" stroke-width="1.5" stroke-linecap="round" stroke-linejoin="round"/>
<path d="M9.875 1.5V6.74531L14.7852 14.9281C14.8421 15.0229 14.8729 15.1311 14.8744 15.2417C14.8758 15.3523 14.8479 15.4613 14.7935 15.5575C14.7391 15.6538 14.6601 15.7339 14.5646 15.7897C14.4692 15.8455 14.3606 15.8749 14.25 15.875H1.75C1.63935 15.875 1.53068 15.8457 1.43508 15.79C1.33948 15.7343 1.26039 15.6542 1.20589 15.5579C1.15139 15.4616 1.12342 15.3525 1.12486 15.2419C1.1263 15.1312 1.15708 15.023 1.21406 14.9281L6.125 6.74531V1.5" stroke="#041724" stroke-width="1.5" stroke-linecap="round" stroke-linejoin="round"/>
<path d="M3.59609 10.9594C4.62969 10.7656 6.09609 10.8492 8 11.8125C10.5195 13.0883 12.2773 12.8211 13.2734 12.4102" stroke="#041724" stroke-width="1.5" stroke-linecap="round" stroke-linejoin="round"/>
</svg>
