<svg width="17" height="21" viewBox="0 0 17 21" fill="none" xmlns="http://www.w3.org/2000/svg">
<path d="M16.375 8.75C16.375 14.875 8.5 20.125 8.5 20.125C8.5 20.125 0.625 14.875 0.625 8.75C0.625 6.66142 1.45469 4.65838 2.93153 3.18153C4.40838 1.70469 6.41142 0.875 8.5 0.875C10.5886 0.875 12.5916 1.70469 14.0685 3.18153C15.5453 4.65838 16.375 6.66142 16.375 8.75Z" stroke="#606466" stroke-linecap="round" stroke-linejoin="round"/>
<path d="M8.5 11.375C9.94975 11.375 11.125 10.1997 11.125 8.75C11.125 7.30025 9.94975 6.125 8.5 6.125C7.05025 6.125 5.875 7.30025 5.875 8.75C5.875 10.1997 7.05025 11.375 8.5 11.375Z" stroke="#606466" stroke-linecap="round" stroke-linejoin="round"/>
</svg>
