<svg width="16" height="20" viewBox="0 0 16 20" fill="none" xmlns="http://www.w3.org/2000/svg">
<path d="M9.66634 1.66675H2.99967C2.55765 1.66675 2.13372 1.84234 1.82116 2.1549C1.5086 2.46746 1.33301 2.89139 1.33301 3.33341V16.6667C1.33301 17.1088 1.5086 17.5327 1.82116 17.8453C2.13372 18.1578 2.55765 18.3334 2.99967 18.3334H12.9997C13.4417 18.3334 13.8656 18.1578 14.1782 17.8453C14.4907 17.5327 14.6663 17.1088 14.6663 16.6667V6.66675M9.66634 1.66675L14.6663 6.66675M9.66634 1.66675L9.66634 6.66675H14.6663M11.333 10.8334H4.66634M11.333 14.1667H4.66634M6.33301 7.50008H4.66634" stroke="#041724" stroke-width="1.5" stroke-linecap="round" stroke-linejoin="round"/>
</svg>
