<svg width="20" height="18" viewBox="0 0 20 18" fill="none" xmlns="http://www.w3.org/2000/svg">
<path fill-rule="evenodd" clip-rule="evenodd" d="M0.832684 1.91632C1.0628 1.91632 1.24935 2.10287 1.24935 2.33299V6.91632H5.83268C6.0628 6.91632 6.24935 7.10287 6.24935 7.33299C6.24935 7.56311 6.0628 7.74966 5.83268 7.74966H0.832684C0.602565 7.74966 0.416017 7.56311 0.416017 7.33299V2.33299C0.416017 2.10287 0.602565 1.91632 0.832684 1.91632Z" fill="#001F33"/>
<path fill-rule="evenodd" clip-rule="evenodd" d="M13.7494 10.6663C13.7494 10.4362 13.9359 10.2497 14.166 10.2497H19.166C19.3961 10.2497 19.5827 10.4362 19.5827 10.6663V15.6663C19.5827 15.8964 19.3961 16.083 19.166 16.083C18.9359 16.083 18.7493 15.8964 18.7493 15.6663V11.083H14.166C13.9359 11.083 13.7494 10.8964 13.7494 10.6663Z" fill="#001F33"/>
<path fill-rule="evenodd" clip-rule="evenodd" d="M7.80425 1.39671C9.08889 1.02512 10.4467 0.985022 11.7511 1.28014C13.0554 1.57527 14.2637 2.19599 15.2633 3.08441C16.2628 3.97282 17.021 5.09996 17.4671 6.36066C17.5439 6.57759 17.4303 6.81569 17.2133 6.89245C16.9964 6.96922 16.7583 6.85559 16.6816 6.63865C16.2824 5.51066 15.604 4.50217 14.7097 3.70727C13.8153 2.91238 12.7342 2.35699 11.5672 2.09293C10.4001 1.82888 9.18522 1.86476 8.0358 2.19723C6.88638 2.5297 5.83992 3.14792 4.99405 3.99421L4.98467 4.0033L1.11801 7.63664C0.950307 7.79422 0.686616 7.78601 0.529036 7.61831C0.371457 7.45061 0.37966 7.18692 0.54736 7.02934L4.40933 3.40042C5.35389 2.45697 6.52173 1.76768 7.80425 1.39671ZM19.4697 10.381C19.6272 10.5487 19.619 10.8124 19.4513 10.97L15.5894 14.5989C14.6448 15.5423 13.477 16.2316 12.1945 16.6026C10.9098 16.9742 9.55197 17.0143 8.24764 16.7192C6.9433 16.424 5.73499 15.8033 4.73543 14.9149C3.73588 14.0265 2.97767 12.8994 2.53155 11.6387C2.45479 11.4217 2.56842 11.1836 2.78535 11.1069C3.00229 11.0301 3.24038 11.1437 3.31715 11.3607C3.71631 12.4887 4.39471 13.4971 5.28904 14.292C6.18338 15.0869 7.26451 15.6423 8.43154 15.9064C9.59858 16.1704 10.8135 16.1346 11.9629 15.8021C13.1123 15.4696 14.1588 14.8514 15.0046 14.0051L15.014 13.996L18.8807 10.3627C19.0484 10.2051 19.3121 10.2133 19.4697 10.381Z" fill="#001F33"/>
<path fill-rule="evenodd" clip-rule="evenodd" d="M0.832684 1.91632C1.0628 1.91632 1.24935 2.10287 1.24935 2.33299V6.91632H5.83268C6.0628 6.91632 6.24935 7.10287 6.24935 7.33299C6.24935 7.56311 6.0628 7.74966 5.83268 7.74966H0.832684C0.602565 7.74966 0.416017 7.56311 0.416017 7.33299V2.33299C0.416017 2.10287 0.602565 1.91632 0.832684 1.91632Z" stroke="#001F33" stroke-linecap="round" stroke-linejoin="round"/>
<path fill-rule="evenodd" clip-rule="evenodd" d="M13.7494 10.6663C13.7494 10.4362 13.9359 10.2497 14.166 10.2497H19.166C19.3961 10.2497 19.5827 10.4362 19.5827 10.6663V15.6663C19.5827 15.8964 19.3961 16.083 19.166 16.083C18.9359 16.083 18.7493 15.8964 18.7493 15.6663V11.083H14.166C13.9359 11.083 13.7494 10.8964 13.7494 10.6663Z" stroke="#001F33" stroke-linecap="round" stroke-linejoin="round"/>
<path fill-rule="evenodd" clip-rule="evenodd" d="M7.80425 1.39671C9.08889 1.02512 10.4467 0.985022 11.7511 1.28014C13.0554 1.57527 14.2637 2.19599 15.2633 3.08441C16.2628 3.97282 17.021 5.09996 17.4671 6.36066C17.5439 6.57759 17.4303 6.81569 17.2133 6.89245C16.9964 6.96922 16.7583 6.85559 16.6816 6.63865C16.2824 5.51066 15.604 4.50217 14.7097 3.70727C13.8153 2.91238 12.7342 2.35699 11.5672 2.09293C10.4001 1.82888 9.18522 1.86476 8.0358 2.19723C6.88638 2.5297 5.83992 3.14792 4.99405 3.99421L4.98467 4.0033L1.11801 7.63664C0.950307 7.79422 0.686616 7.78601 0.529036 7.61831C0.371457 7.45061 0.37966 7.18692 0.54736 7.02934L4.40933 3.40042C5.35389 2.45697 6.52173 1.76768 7.80425 1.39671ZM19.4697 10.381C19.6272 10.5487 19.619 10.8124 19.4513 10.97L15.5894 14.5989C14.6448 15.5423 13.477 16.2316 12.1945 16.6026C10.9098 16.9742 9.55197 17.0143 8.24764 16.7192C6.9433 16.424 5.73499 15.8033 4.73543 14.9149C3.73588 14.0265 2.97767 12.8994 2.53155 11.6387C2.45479 11.4217 2.56842 11.1836 2.78535 11.1069C3.00229 11.0301 3.24038 11.1437 3.31715 11.3607C3.71631 12.4887 4.39471 13.4971 5.28904 14.292C6.18338 15.0869 7.26451 15.6423 8.43154 15.9064C9.59858 16.1704 10.8135 16.1346 11.9629 15.8021C13.1123 15.4696 14.1588 14.8514 15.0046 14.0051L15.014 13.996L18.8807 10.3627C19.0484 10.2051 19.3121 10.2133 19.4697 10.381Z" stroke="#001F33" stroke-linecap="round" stroke-linejoin="round"/>
</svg>
