<svg width="20" height="20" viewBox="0 0 20 20" fill="none" xmlns="http://www.w3.org/2000/svg">
<path fill-rule="evenodd" clip-rule="evenodd" d="M10.3236 14.5452C7.66114 14.5452 5.59022 12.5225 5.59022 9.92199C5.59022 7.32134 7.66114 5.29873 10.3236 5.29873C12.986 5.29873 15.0569 7.32134 15.0569 9.92199C15.0569 12.5225 12.986 14.5452 10.3236 14.5452ZM10.3236 13.7747C11.7047 13.7747 12.8876 13.1004 13.5775 12.1372C11.5065 10.9814 11.5065 10.9814 11.5065 10.9814C11.2115 11.2704 10.8167 11.4631 10.3236 11.4631C9.83041 11.4631 9.43561 11.2704 9.14059 10.9814C7.06966 12.1372 7.06965 12.1372 7.06965 12.1372C7.75948 13.1004 8.94246 13.7747 10.3236 13.7747ZM9.92875 6.06928C7.95761 6.26191 6.37982 7.89924 6.37982 9.92199C6.37982 10.4999 6.47817 10.9814 6.67485 11.4631C8.84412 10.3073 8.84412 10.3073 8.84412 10.3073C8.74578 10.2109 8.74579 10.0182 8.74579 9.92199C8.74579 9.24769 9.23893 8.57354 9.92875 8.47715V6.06928ZM9.5354 9.92199C9.5354 10.3073 9.92875 10.6925 10.3236 10.6925C10.7184 10.6925 11.1117 10.3073 11.1117 9.92199C11.1117 9.53672 10.7184 9.15144 10.3236 9.15144C9.92875 9.15144 9.5354 9.53672 9.5354 9.92199ZM14.2673 9.92199C14.2673 7.89924 12.6895 6.26191 10.7184 6.06928C10.7184 8.47715 10.7184 8.47715 10.7184 8.47715C11.4082 8.57354 11.9013 9.24769 11.9013 9.92199C11.9013 10.0182 11.9013 10.2109 11.803 10.3073C13.9723 11.4631 13.9723 11.4631 13.9723 11.4631C14.1689 10.9814 14.2673 10.4999 14.2673 9.92199ZM18.4091 11.6557C17.6195 11.8483 17.6195 11.8483 17.6195 11.8483C17.4228 12.4262 17.1278 13.0042 16.8314 13.5821C17.3245 14.3526 17.3245 14.3526 17.3245 14.3526C17.4228 14.5452 17.5212 14.9305 17.3245 15.1231C15.6484 16.7605 15.6484 16.7605 15.6484 16.7605C15.5501 16.8569 15.4503 16.8569 15.2536 16.8569C15.1553 16.8569 14.9586 16.7605 14.8588 16.7605C14.0706 16.279 14.0706 16.279 14.0706 16.279C13.4791 16.5678 12.8876 16.8569 12.2961 17.0495C12.098 17.82 12.098 17.82 12.098 17.82C11.9997 18.1089 11.803 18.3979 11.5065 18.3979C9.14057 18.3979 9.14059 18.3979 9.14059 18.3979C8.84413 18.3979 8.64743 18.1089 8.54909 17.82C8.35097 17.0495 8.35098 17.0495 8.35098 17.0495C7.7595 16.8569 7.16801 16.5678 6.57652 16.279C5.78835 16.7605 5.78832 16.7605 5.78832 16.7605C5.68854 16.7605 5.49186 16.8569 5.39352 16.8569C5.19684 16.8569 5.09706 16.8569 4.99872 16.7605C3.3226 15.1231 3.32262 15.1231 3.32262 15.1231C3.12594 14.9305 3.22428 14.5452 3.32262 14.3526C3.81577 13.5821 3.81575 13.5821 3.81575 13.5821C3.51929 13.0042 3.22427 12.4262 3.02759 11.8483C2.23798 11.6557 2.23798 11.6557 2.23798 11.6557C1.94296 11.5593 1.64648 11.3667 1.64648 11.0778C1.64648 8.76617 1.64648 8.76617 1.64648 8.76617C1.64648 8.47715 1.94296 8.28451 2.23798 8.18827C3.0276 7.99563 3.02759 7.99563 3.02759 7.99563C3.22427 7.41772 3.51929 6.83982 3.81575 6.26191C3.32261 5.49137 3.32262 5.49137 3.32262 5.49137C3.22428 5.29873 3.12594 4.91346 3.32262 4.72083C4.99874 3.08336 4.99872 3.08336 4.99872 3.08336C5.09706 2.98711 5.19684 2.98711 5.39352 2.98711C5.49186 2.98711 5.68854 3.08336 5.78832 3.08336C6.57649 3.56502 6.57652 3.56501 6.57652 3.56501C7.16801 3.27599 7.7595 2.98711 8.35098 2.79447C8.54911 2.02393 8.54909 2.02393 8.54909 2.02393C8.64743 1.73491 8.84413 1.44602 9.14059 1.44602C11.5065 1.44602 11.5065 1.44602 11.5065 1.44602C11.803 1.44602 11.9997 1.73491 12.098 2.02393C12.2961 2.79447 12.2961 2.79447 12.2961 2.79447C12.8876 2.98711 13.4791 3.27599 14.0706 3.56501C14.8588 3.08336 14.8588 3.08336 14.8588 3.08336C14.9586 3.08336 15.1553 2.98711 15.2536 2.98711C15.4503 2.98711 15.5501 2.98711 15.6484 3.08336C17.3245 4.72083 17.3245 4.72083 17.3245 4.72083C17.5212 4.91346 17.4228 5.29873 17.3245 5.49137C16.8313 6.26191 16.8314 6.26191 16.8314 6.26191C17.1278 6.83982 17.4228 7.41772 17.6195 7.99563C18.4091 8.18827 18.4091 8.18827 18.4091 8.18827C18.7041 8.28451 19.0006 8.47715 19.0006 8.76617C19.0006 11.0778 19.0006 11.0778 19.0006 11.0778C19.0006 11.3667 18.7041 11.5593 18.4091 11.6557ZM18.2125 8.95881C17.4229 8.76617 17.4229 8.76617 17.4229 8.76617C17.1278 8.66979 16.9297 8.47715 16.8314 8.18827C16.6347 7.70661 16.4366 7.1287 16.1415 6.64718C16.0432 6.35816 16.0432 6.06928 16.1415 5.87664C16.6347 5.1061 16.6347 5.1061 16.6347 5.1061C15.2536 3.75765 15.2536 3.75765 15.2536 3.75765C14.4654 4.23917 14.4654 4.23917 14.4654 4.23917C14.3656 4.33556 14.2673 4.33556 14.0706 4.33556C13.9723 4.33556 13.7741 4.33556 13.6758 4.23917C13.1826 3.95029 12.5912 3.75765 12.098 3.56501C11.803 3.46863 11.6049 3.27599 11.5065 2.98711C11.3098 2.21657 11.3099 2.21657 11.3099 2.21657C9.33727 2.21657 9.33725 2.21657 9.33725 2.21657C9.14057 2.98711 9.14059 2.98711 9.14059 2.98711C9.04225 3.27599 8.84411 3.46863 8.54909 3.56501C8.05595 3.75765 7.46447 3.95029 6.97132 4.23917C6.87298 4.33556 6.67486 4.33556 6.57652 4.33556C6.37984 4.33556 6.2815 4.33556 6.18172 4.23917C5.49189 3.75765 5.49189 3.75765 5.49189 3.75765C5.39355 3.75765 5.39352 3.75765 5.39352 3.75765C4.01242 5.1061 4.01245 5.1061 4.01245 5.1061C4.5056 5.87664 4.50558 5.87664 4.50558 5.87664C4.60392 6.06928 4.60392 6.35816 4.50558 6.64718C4.21056 7.1287 4.01243 7.70661 3.81575 8.18827C3.71741 8.47715 3.51927 8.66979 3.22425 8.76617C2.43464 8.95881 2.43464 8.95881 2.43464 8.95881C2.43464 10.8852 2.43464 10.8852 2.43464 10.8852C3.22426 11.0778 3.22425 11.0778 3.22425 11.0778C3.51927 11.174 3.71741 11.3667 3.81575 11.6557C4.01243 12.1372 4.21056 12.7151 4.50558 13.1968C4.60392 13.4857 4.60392 13.7747 4.50558 13.9673C4.01244 14.7379 4.01245 14.7379 4.01245 14.7379C5.39355 16.0863 5.39352 16.0863 5.39352 16.0863C6.18169 15.6047 6.18172 15.6047 6.18172 15.6047C6.2815 15.5084 6.37984 15.5084 6.57652 15.5084C6.67486 15.5084 6.87298 15.5084 6.97132 15.6047C7.46447 15.8937 8.05595 16.0863 8.54909 16.279C8.84411 16.3752 9.04225 16.5678 9.14059 16.8569C9.33727 17.6274 9.33725 17.6274 9.33725 17.6274C11.3098 17.6274 11.3099 17.6274 11.3099 17.6274C11.5065 16.8569 11.5065 16.8569 11.5065 16.8569C11.6049 16.5678 11.803 16.3752 12.098 16.279C12.5912 16.0863 13.1826 15.8937 13.6758 15.6047C13.7741 15.5084 13.9723 15.5084 14.0706 15.5084C14.2673 15.5084 14.3656 15.5084 14.4654 15.6047C15.2536 16.0863 15.2536 16.0863 15.2536 16.0863C16.6347 14.7379 16.6347 14.7379 16.6347 14.7379C16.6347 14.7379 16.6347 14.7379 16.6347 14.6415C16.1415 13.9673 16.1415 13.9673 16.1415 13.9673C16.0432 13.7747 16.0432 13.4857 16.1415 13.1968C16.4366 12.7151 16.6347 12.1372 16.8314 11.6557C16.9297 11.3667 17.1278 11.174 17.4229 11.0778C18.2125 10.8852 18.2125 10.8852 18.2125 10.8852V8.95881Z" fill="#272829" stroke="black" stroke-width="0.5"/>
</svg>
