<svg width="16" height="18" viewBox="0 0 16 18" fill="none" xmlns="http://www.w3.org/2000/svg">
  <path d="M0.5 4.00033H2.16667M2.16667 4.00033H15.5M2.16667 4.00033L2.16667 15.667C2.16667 16.109 2.34226 16.5329 2.65482 16.8455C2.96738 17.1581 3.39131 17.3337 3.83333 17.3337H12.1667C12.6087 17.3337 13.0326 17.1581 13.3452 16.8455C13.6577 16.5329 13.8333 16.109 13.8333 15.667V4.00033M4.66667 4.00033V2.33366C4.66667 1.89163 4.84226 1.46771 5.15482 1.15515C5.46738 0.842587 5.89131 0.666992 6.33333 0.666992H9.66667C10.1087 0.666992 10.5326 0.842587 10.8452 1.15515C11.1577 1.46771 11.3333 1.89163 11.3333 2.33366V4.00033M6.33333 8.16699V13.167M9.66667 8.16699V13.167" style="stroke: #FFFFFF" stroke-linecap="round" stroke-linejoin="round"/>
</svg>